<?xml version="1.0" standalone="no"?>
<!DOCTYPE svg PUBLIC "-//W3C//DTD SVG 20010904//EN"
 "http://www.w3.org/TR/2001/REC-SVG-20010904/DTD/svg10.dtd">
<svg version="1.0" xmlns="http://www.w3.org/2000/svg"
 width="500.000000pt" height="500.000000pt" viewBox="0 0 500.000000 500.000000"
 preserveAspectRatio="xMidYMid meet">
<metadata>
Created by potrace 1.14, written by Peter Selinger 2001-2017
</metadata>
<g transform="translate(0.000000,500.000000) scale(0.100000,-0.100000)"
fill="#000000" stroke="none">
<path d="M4237 4284 c-2 -2 -129 -16 -167 -18 -14 -1 -30 -5 -35 -8 -6 -3 -29
-4 -52 -3 -24 0 -43 -2 -43 -5 0 -3 -10 -6 -22 -7 -13 -1 -52 -5 -88 -9 -36
-4 -74 -8 -85 -9 -11 -2 -45 -6 -75 -10 -81 -11 -120 -15 -165 -20 -22 -2 -40
-4 -40 -5 0 -1 -17 -3 -39 -5 -21 -2 -59 -6 -85 -10 -25 -4 -57 -9 -71 -10
-23 -1 -184 -20 -269 -31 -99 -12 -140 -16 -178 -18 -24 0 -43 -3 -43 -6 0 -3
-8 -6 -17 -7 -69 -5 -142 -13 -163 -18 -14 -3 -50 -8 -80 -11 -95 -9 -124 -13
-150 -19 -14 -3 -52 -8 -85 -11 -33 -3 -71 -7 -85 -9 -14 -2 -50 -6 -80 -9
-30 -4 -75 -9 -100 -13 -61 -8 -94 -11 -165 -18 -32 -3 -67 -7 -76 -10 -15 -5
-37 -8 -164 -20 -22 -2 -56 -7 -75 -10 -19 -3 -51 -7 -70 -9 -19 -3 -75 -9
-125 -15 -49 -6 -110 -14 -135 -16 -25 -3 -58 -7 -75 -10 -16 -2 -51 -6 -77
-9 -27 -3 -69 -9 -95 -12 -27 -3 -59 -7 -73 -8 -14 -2 -50 -7 -80 -11 -30 -5
-61 -8 -69 -6 -16 3 -14 -12 16 -169 3 -19 5 -39 4 -44 -1 -4 3 -22 8 -40 9
-28 15 -65 25 -161 2 -16 6 -37 9 -45 9 -24 29 -164 29 -197 0 -13 3 -23 7
-23 3 0 7 -17 9 -37 2 -37 8 -78 12 -78 1 0 4 -13 5 -30 2 -16 5 -41 8 -55 7
-35 18 -106 22 -133 2 -21 8 -55 21 -122 3 -16 7 -46 9 -67 3 -20 9 -48 15
-62 6 -16 6 -26 0 -26 -6 0 -5 -11 1 -27 6 -16 12 -39 14 -53 1 -14 5 -38 9
-55 3 -16 8 -52 11 -80 3 -27 9 -59 12 -70 4 -11 7 -36 9 -55 1 -19 3 -35 4
-35 1 0 4 -9 5 -20 2 -11 6 -36 10 -55 6 -31 15 -85 30 -175 3 -16 7 -39 9
-50 3 -11 5 -31 5 -45 2 -47 11 -51 76 -34 33 8 67 15 75 16 8 0 21 6 29 12
12 9 13 8 7 -2 -7 -11 -4 -12 10 -4 17 9 128 37 189 47 11 2 20 4 20 5 0 2 11
4 25 5 14 2 43 8 65 14 22 7 52 13 68 16 15 2 34 8 43 13 9 5 25 7 35 5 11 -3
19 -1 19 5 0 6 7 9 16 8 9 -1 45 5 80 15 35 10 64 15 64 12 0 -3 7 1 17 8 9 8
19 13 22 11 5 -3 83 7 101 13 26 8 59 17 73 19 9 1 19 5 23 8 3 4 12 4 19 2 7
-3 16 -1 19 5 4 6 13 8 21 4 9 -3 21 0 29 6 8 7 18 11 22 10 19 -3 44 1 44 9
0 7 -39 9 -385 17 -99 2 -254 7 -345 11 -91 4 -182 7 -202 6 -37 -1 -50 8 -54
38 -1 8 -9 42 -18 76 -8 34 -18 73 -21 87 -3 15 -7 39 -10 54 -3 14 -10 34
-15 43 -5 10 -7 20 -4 22 2 3 0 17 -6 32 -9 24 -16 54 -26 111 -2 11 -12 53
-23 93 -10 40 -19 73 -19 75 0 13 -18 90 -25 107 -6 16 -31 127 -32 145 0 6
-3 15 -6 20 -6 10 -20 74 -18 85 0 3 -4 18 -10 33 -11 27 -20 70 -26 114 -2
12 -7 28 -11 35 -5 7 -9 24 -10 38 -1 14 -3 27 -4 30 -2 3 -4 10 -5 15 -1 6
-7 28 -13 50 -6 22 -13 51 -15 65 -2 14 -6 32 -9 40 -21 58 -27 95 -16 101 6
4 259 7 562 8 303 0 859 3 1236 6 377 3 796 6 933 7 136 1 247 5 247 8 0 4 32
59 70 124 39 64 70 121 70 126 0 4 4 10 8 12 7 2 69 106 173 289 8 15 23 39
32 53 9 14 17 28 17 31 0 4 -48 3 -53 -1z"/>
<path d="M2657 3552 c-16 -3 -5 -36 64 -189 10 -23 19 -44 19 -48 0 -3 11 -28
25 -57 14 -28 25 -57 25 -64 0 -6 6 -14 13 -16 6 -2 107 -4 223 -4 l211 1 -17
-30 c-45 -80 -96 -172 -105 -186 -5 -9 -30 -54 -54 -100 -24 -46 -46 -86 -50
-89 -3 -3 -12 -16 -18 -30 -7 -14 -27 -52 -46 -85 -61 -109 -101 -180 -115
-205 -7 -14 -29 -52 -48 -85 -19 -33 -42 -76 -52 -95 -9 -19 -21 -38 -27 -42
-12 -9 -14 -9 229 -11 l189 -2 23 31 c13 17 24 34 24 37 0 3 13 28 29 55 29
50 76 133 115 207 11 22 23 42 26 45 5 5 31 53 84 155 12 22 23 42 26 45 3 3
15 23 27 45 11 22 35 65 52 95 18 30 37 66 44 80 6 14 14 27 17 30 3 3 19 31
35 62 17 32 33 58 37 58 15 0 -3 44 -59 138 -24 41 -43 76 -43 78 0 3 -5 10
-10 17 -6 7 -29 44 -52 82 -22 39 -42 72 -44 74 -4 4 -774 7 -797 3z"/>
<path d="M1149 3536 c-5 -105 -2 -286 6 -288 6 -1 69 -2 140 -3 l130 -1 5
-514 5 -513 140 1 c77 0 156 1 175 1 l35 1 -2 130 c-1 71 -5 134 -8 140 -3 5
-2 10 2 10 5 0 9 9 9 20 0 11 -4 20 -9 20 -4 0 -5 5 -2 10 7 12 9 469 2 477
-3 3 -3 11 0 19 3 8 6 56 7 106 l1 92 130 0 c72 1 135 4 141 8 8 5 13 250 5
289 0 3 -206 6 -456 6 -328 0 -455 -3 -456 -11z"/>
<path d="M2146 3542 c-3 -2 2 -19 11 -36 10 -17 18 -33 18 -36 3 -9 17 -45 65
-160 54 -129 73 -173 75 -180 3 -9 26 -64 41 -97 15 -35 24 -57 69 -163 15
-36 38 -89 51 -118 13 -29 24 -54 24 -57 0 -2 5 -16 12 -32 6 -15 12 -30 13
-33 1 -3 6 -16 13 -30 50 -113 122 -288 122 -299 0 -7 6 -11 13 -8 6 2 11 10
10 16 -2 6 2 11 8 11 5 0 8 4 5 9 -4 5 -2 11 2 13 7 3 87 142 121 213 9 17 20
33 26 37 6 5 6 8 0 8 -6 0 -6 3 1 8 17 11 42 70 34 79 -4 4 -15 28 -25 53 -9
25 -22 56 -28 70 -6 14 -11 27 -12 30 0 3 -9 20 -18 37 -10 18 -17 34 -17 35
2 4 -11 40 -25 73 -8 17 -22 53 -33 80 -11 28 -28 68 -38 90 -10 22 -18 42
-19 45 -2 5 -12 29 -43 102 -11 25 -18 49 -15 52 4 3 2 6 -4 6 -5 0 -16 19
-23 43 -7 23 -21 59 -31 80 -11 20 -17 37 -14 37 3 0 0 6 -7 13 -9 11 -56 14
-195 14 -100 0 -185 -2 -187 -5z"/>
<path d="M989 1726 c-2 -2 -17 -6 -34 -9 -66 -10 -128 -50 -175 -113 -21 -28
-24 -40 -28 -116 -3 -57 0 -74 19 -104 22 -36 69 -88 69 -77 0 3 8 -1 18 -9
23 -19 86 -48 106 -48 9 0 16 -4 16 -8 0 -4 10 -9 23 -9 66 -4 169 -42 201
-76 28 -29 12 -84 -31 -109 -18 -9 -33 -13 -33 -7 0 6 -6 7 -16 1 -22 -12 -89
3 -112 26 -18 18 -54 97 -47 103 4 5 -110 1 -183 -6 -57 -5 -75 -12 -67 -25 2
-4 7 -24 11 -45 13 -82 79 -161 169 -200 31 -14 53 -20 49 -14 -4 8 1 7 16 -1
23 -12 215 -16 258 -6 12 3 30 8 40 10 95 21 181 105 207 201 31 113 -19 229
-118 277 -59 29 -87 41 -102 43 -5 1 -17 5 -25 8 -25 10 -103 30 -133 33 -32
4 -82 29 -92 44 -4 6 -4 22 -1 36 10 37 50 49 134 42 6 -1 12 -5 12 -10 0 -4
6 -8 13 -8 8 0 22 -19 33 -42 l19 -42 63 0 c34 -1 62 1 62 4 0 3 19 5 43 4 64
-1 76 5 70 29 -2 12 -6 29 -7 37 -4 29 -39 85 -70 114 -29 27 -75 51 -120 64
-25 6 -251 14 -257 8z"/>
<path d="M2080 1725 c0 -6 -29 -10 -73 -9 l-72 1 1 -416 c1 -229 2 -418 3
-421 0 -3 40 -4 88 -2 49 2 104 2 123 1 19 0 42 -1 50 0 22 0 321 0 329 -1 3
0 29 0 58 1 l51 1 1 85 c0 46 -2 90 -4 97 -4 11 -53 13 -220 13 -136 0 -216 3
-218 10 -3 8 -2 106 2 140 1 6 73 10 196 9 130 0 195 3 196 10 0 6 1 45 2 86
l1 75 -189 1 c-105 1 -194 2 -200 3 -10 1 -11 103 -2 118 3 5 99 8 214 8 l209
-1 0 91 -1 90 -188 0 c-118 0 -187 4 -187 10 0 7 -3 7 -8 0 -9 -13 -145 -13
-154 0 -5 7 -8 7 -8 0z"/>
<path d="M2880 1725 c0 -6 -43 -10 -110 -9 l-110 1 -1 -81 c-1 -85 0 -118 7
-125 2 -2 60 -4 129 -4 l125 -1 1 -41 c1 -22 1 -44 0 -49 -1 -4 -2 -22 -1 -40
3 -257 1 -467 -5 -475 -6 -11 50 -29 70 -22 11 4 95 4 110 1 6 -1 26 -2 47 -1
l36 1 0 283 c1 155 1 296 1 313 l1 31 128 -1 127 0 2 34 c3 52 5 132 4 156 -1
20 -6 20 -196 20 -124 -1 -195 3 -195 9 0 7 -3 7 -8 0 -9 -13 -145 -13 -154 0
-5 6 -8 7 -8 0z"/>
<path d="M3757 1724 c-3 -5 -56 -8 -119 -8 -62 1 -120 0 -130 -2 -15 -4 -16
-42 -17 -418 l-2 -413 78 -2 c43 -1 83 -2 88 -2 6 -1 42 0 80 0 39 0 77 0 85
0 8 -1 42 0 75 0 33 1 88 1 123 0 34 -1 65 1 68 4 3 3 18 1 34 -3 16 -4 31 -6
34 -3 3 3 16 6 28 7 22 1 23 5 23 86 0 47 -1 90 -2 95 -2 7 -81 10 -219 10
-119 0 -218 4 -221 9 -10 16 -8 146 2 149 6 2 95 3 199 2 181 -1 188 0 196 19
4 12 4 31 -1 44 -6 14 -5 22 2 22 8 0 8 4 1 13 -7 8 -7 18 -2 27 5 8 5 21 0
30 -8 14 -32 16 -192 15 -101 0 -190 2 -198 6 -12 5 -15 21 -14 58 0 28 4 54
8 58 4 4 100 8 214 9 114 1 209 2 212 3 4 1 5 125 1 167 -1 6 -38 10 -103 9
-57 0 -109 3 -115 8 -8 5 -13 6 -13 1 0 -12 -183 -12 -191 0 -4 4 -9 4 -12 0z"/>
<path d="M1551 1298 l-1 -418 32 -1 c18 -1 38 0 43 1 6 1 17 2 25 2 24 -2 92
-1 130 1 l35 2 0 413 c0 226 -2 413 -5 413 -3 1 -62 3 -132 4 l-126 1 -1 -418z"/>
</g>
</svg>
