<?xml version="1.0" standalone="no"?>
<!DOCTYPE svg PUBLIC "-//W3C//DTD SVG 20010904//EN"
 "http://www.w3.org/TR/2001/REC-SVG-20010904/DTD/svg10.dtd">
<svg version="1.0" xmlns="http://www.w3.org/2000/svg"
 width="426.000000pt" height="426.000000pt" viewBox="0 0 426.000000 426.000000"
 preserveAspectRatio="xMidYMid meet">
<metadata>
Created by potrace 1.14, written by Peter Selinger 2001-2017
</metadata>
<g transform="translate(0.000000,426.000000) scale(0.100000,-0.100000)"
fill="#000000" stroke="none">
<path d="M4000 4029 c-25 -4 -72 -10 -105 -13 -33 -4 -109 -13 -170 -21 -60
-8 -137 -17 -170 -21 -33 -3 -103 -12 -155 -20 -52 -7 -124 -15 -160 -18 -36
-3 -74 -7 -85 -10 -11 -2 -49 -7 -85 -11 -36 -4 -72 -9 -80 -10 -8 -2 -49 -6
-90 -10 -41 -4 -77 -8 -80 -10 -3 -2 -36 -6 -75 -9 -38 -4 -81 -8 -95 -11 -14
-2 -47 -7 -75 -10 -27 -3 -70 -8 -95 -12 -25 -4 -49 -6 -53 -5 -4 1 -38 -3
-75 -9 -37 -6 -83 -12 -102 -14 -58 -5 -151 -16 -220 -26 -36 -6 -72 -10 -80
-10 -8 0 -46 -4 -85 -9 -38 -5 -89 -11 -113 -14 -127 -16 -222 -27 -262 -32
-25 -3 -76 -9 -115 -14 -38 -5 -95 -12 -125 -15 -30 -3 -91 -10 -135 -16 -44
-5 -96 -12 -115 -14 -73 -9 -126 -16 -160 -20 -19 -3 -62 -8 -95 -11 -33 -4
-70 -10 -81 -15 -12 -4 -24 -5 -27 -2 -3 3 -43 0 -89 -6 -46 -7 -99 -14 -118
-15 -74 -8 -155 -18 -158 -21 -2 -2 9 -56 24 -121 14 -66 28 -128 30 -139 2
-11 11 -47 19 -80 9 -33 17 -71 20 -85 2 -14 13 -65 25 -115 17 -71 120 -517
135 -585 2 -8 15 -69 30 -135 15 -66 29 -127 30 -135 2 -8 4 -15 5 -15 1 0 4
-11 6 -25 10 -59 152 -661 157 -666 3 -3 41 2 84 10 99 20 122 25 153 31 14 2
127 25 252 50 125 24 242 47 260 50 18 4 52 10 76 16 23 5 59 12 80 15 20 3
44 7 52 10 8 3 29 8 45 10 17 2 41 6 55 9 14 3 48 10 75 16 28 5 61 12 75 14
100 20 68 23 -295 25 -523 2 -754 6 -759 11 -2 3 -73 359 -111 559 -3 14 -7
36 -10 50 -3 14 -7 36 -10 50 -3 14 -7 36 -10 50 -6 30 -4 16 -55 280 -23 118
-44 226 -46 240 -3 14 -7 32 -9 40 -2 8 -7 31 -10 50 -3 19 -10 53 -16 75 -5
22 -11 54 -14 70 -2 17 -11 68 -20 115 -9 47 -19 94 -21 105 -3 20 2 20 1619
19 l1623 -1 57 111 c31 62 57 117 57 124 0 7 3 12 8 12 4 0 39 64 77 143 39
78 72 144 75 147 8 8 30 49 30 55 0 7 -55 4 -120 -6z"/>
<path d="M739 3335 c-1 0 -2 -73 -4 -162 -1 -141 1 -163 14 -168 9 -2 72 -4
141 -4 69 0 134 0 145 0 20 -1 20 -7 19 -568 -1 -313 0 -575 2 -584 4 -13 30
-15 187 -14 100 0 187 3 192 7 6 4 10 208 9 582 -1 518 1 576 15 577 9 1 77 1
151 1 74 0 140 4 145 8 11 9 13 306 1 317 -6 6 -258 8 -1017 8z"/>
<path d="M1875 3312 c3 -12 78 -203 166 -425 88 -221 176 -442 196 -492 19
-49 41 -103 48 -120 7 -16 25 -61 40 -100 14 -38 33 -83 40 -100 8 -16 24 -56
36 -88 l22 -58 19 28 c11 15 23 37 29 48 5 11 15 29 21 39 62 96 97 156 90
156 -4 0 -2 4 4 8 15 10 104 160 104 175 0 7 -5 18 -12 25 -7 7 -8 12 -2 12 5
0 3 4 -3 8 -7 4 -14 17 -16 27 -5 23 -41 108 -62 147 -9 15 -15 29 -15 30 2 5
-12 42 -41 106 -16 35 -29 66 -29 70 0 3 -9 24 -19 46 -11 23 -49 113 -86 201
-36 88 -75 179 -86 202 -10 24 -19 47 -19 52 0 22 -34 26 -228 26 l-203 0 6
-23z"/>
<path d="M2740 3330 l-195 -5 0 -160 0 -160 305 -1 c195 0 305 -4 307 -11 2
-5 -56 -111 -128 -234 -73 -123 -143 -244 -157 -269 -13 -25 -30 -52 -38 -61
-8 -8 -14 -19 -14 -23 0 -5 -33 -63 -73 -130 -40 -66 -76 -128 -80 -136 -4 -8
-19 -33 -32 -55 -14 -22 -28 -48 -32 -57 -3 -10 -9 -18 -14 -18 -5 0 -9 -5 -9
-11 0 -6 -20 -45 -45 -85 -24 -41 -41 -75 -37 -75 4 -1 99 -2 211 -3 l204 -1
32 50 c17 27 38 65 46 83 8 17 17 32 21 32 5 0 8 7 8 15 0 8 5 15 11 15 5 0 8
4 5 9 -3 5 1 14 9 21 8 7 15 17 15 22 0 5 16 34 35 64 19 30 35 56 35 58 0 4
90 165 110 196 22 35 77 132 143 250 10 19 24 41 29 48 6 6 7 12 2 12 -5 0 -1
5 9 11 9 5 17 14 17 19 0 9 239 431 249 440 3 3 7 12 9 20 2 8 8 17 13 18 5 2
9 8 9 13 0 5 12 28 26 50 14 23 24 43 22 45 -6 6 -822 9 -1028 4z"/>
<path d="M544 1241 c-80 -20 -204 -114 -204 -157 0 -8 -4 -14 -8 -14 -12 0
-32 -94 -32 -152 0 -55 18 -128 32 -128 4 0 7 -3 6 -8 -4 -12 34 -55 71 -82
19 -13 84 -42 145 -64 62 -23 122 -48 134 -57 32 -23 43 -69 25 -106 -38 -80
-177 -76 -298 7 -25 18 -48 30 -49 28 -7 -7 -93 -174 -99 -191 -5 -14 7 -24
61 -51 106 -53 173 -69 287 -69 57 1 113 6 130 13 17 7 35 14 40 14 23 2 82
38 118 71 21 19 50 61 65 92 22 49 26 72 26 143 -1 99 -21 155 -75 208 -36 35
-150 94 -209 108 -41 9 -37 8 -75 24 -71 30 -85 108 -26 143 35 20 118 25 149
8 12 -6 22 -8 22 -4 0 4 4 3 8 -2 9 -13 63 -48 67 -43 6 7 79 153 80 160 0 3
3 10 8 14 19 19 4 37 -43 49 -3 1 -18 7 -35 14 -82 35 -243 50 -321 32z"/>
<path d="M1162 722 l-1 -499 129 -1 129 -1 -2 497 -2 497 -126 3 -127 3 0
-499z"/>
<path d="M1632 723 l3 -498 283 -2 282 -1 0 109 0 109 -155 0 -156 0 3 87 3
87 145 1 144 0 1 103 c0 59 -4 107 -10 110 -5 4 -71 7 -145 7 l-135 0 -3 83
-3 82 28 1 c15 0 86 1 156 1 l128 1 -2 109 -1 108 -284 0 -284 0 2 -497z"/>
<path d="M2299 1218 c-1 -2 -2 -51 -4 -109 l-2 -106 91 -1 c50 0 98 -1 107 -1
15 -1 17 -35 17 -353 0 -194 1 -370 1 -390 l1 -38 113 1 c61 0 120 3 130 6 16
4 17 29 17 385 -1 209 2 383 5 386 3 3 49 6 103 6 l97 1 3 108 3 107 -341 0
c-187 0 -341 -1 -341 -2z"/>
<path d="M3100 721 l0 -500 285 1 285 0 0 109 0 108 -157 3 -156 3 0 50 c1 28
2 66 2 85 l1 35 145 -1 145 0 0 107 c0 77 -4 108 -12 111 -7 2 -73 4 -145 4
l-133 -1 -1 30 c-3 47 1 128 5 133 3 2 72 4 155 5 l151 1 0 108 0 108 -285 0
-285 0 0 -499z"/>
</g>
</svg>
